<?xml version="1.0" standalone="no"?>
<!DOCTYPE svg PUBLIC "-//W3C//DTD SVG 20010904//EN"
 "http://www.w3.org/TR/2001/REC-SVG-20010904/DTD/svg10.dtd">
<svg version="1.0" xmlns="http://www.w3.org/2000/svg"
 width="540.000000pt" height="540.000000pt" viewBox="0 0 540.000000 540.000000"
 preserveAspectRatio="xMidYMid meet">
<metadata>
Created by potrace 1.14, written by Peter Selinger 2001-2017
</metadata>
<g transform="translate(0.000000,540.000000) scale(0.100000,-0.100000)"
fill="#000000" stroke="none">
<path d="M2344 4083 c-101 -127 -405 -508 -441 -553 -7 -8 -32 -40 -56 -70
-24 -30 -153 -192 -286 -360 -133 -168 -250 -314 -259 -325 -9 -11 -42 -52
-72 -90 -30 -39 -161 -203 -290 -365 -129 -163 -354 -446 -500 -629 -146 -183
-291 -365 -322 -404 -31 -39 -55 -73 -53 -77 2 -3 145 -6 317 -6 l313 1 105
131 c58 72 269 337 470 590 399 502 574 721 593 744 7 8 71 89 142 180 72 91
138 174 147 185 9 11 66 82 127 158 l110 138 17 -32 c9 -18 26 -49 36 -68 53
-95 775 -1394 804 -1446 18 -33 98 -177 178 -320 l145 -260 213 0 213 -1 20
36 c12 19 50 89 85 155 35 66 74 140 88 165 42 75 56 100 122 222 l63 117 189
-342 c105 -188 192 -344 195 -347 7 -7 573 -7 573 0 0 3 -4 10 -9 16 -5 5 -26
43 -48 84 -22 41 -86 158 -143 260 -126 227 -103 184 -305 549 l-168 303 21
42 c12 22 40 75 62 116 45 82 107 196 165 305 21 39 63 117 95 175 32 58 77
141 100 185 24 44 85 159 138 255 52 96 97 180 100 185 8 16 -10 -4 -64 -70
-27 -33 -59 -71 -71 -85 -11 -14 -60 -72 -108 -130 -120 -145 -112 -136 -190
-230 -38 -47 -74 -90 -80 -96 -5 -6 -26 -30 -45 -54 -19 -25 -49 -60 -66 -80
-16 -19 -162 -195 -324 -390 -162 -195 -296 -357 -299 -360 -3 -3 -35 -41 -71
-85 -36 -44 -72 -88 -80 -98 -8 -11 -27 -33 -43 -50 -15 -18 -42 -51 -60 -74
-17 -23 -36 -41 -41 -40 -5 2 -41 61 -80 132 -40 72 -86 155 -103 185 -17 30
-108 195 -203 365 -171 308 -199 358 -237 425 -11 19 -41 76 -68 125 -26 50
-51 95 -55 100 -7 9 -44 75 -185 330 -28 51 -122 221 -158 285 -11 19 -39 69
-62 110 -23 41 -61 109 -83 150 -22 41 -54 99 -70 128 l-29 54 -119 -149z"/>
<path d="M3585 4142 c-39 -48 -75 -93 -82 -102 -6 -8 -23 -28 -36 -45 -201
-248 -417 -529 -417 -543 0 -10 4 -22 9 -27 10 -11 201 -354 201 -361 0 -3 11
-21 24 -40 21 -32 25 -34 37 -19 28 32 36 42 129 160 120 151 123 155 131 155
4 0 64 -105 135 -232 70 -128 136 -249 147 -268 11 -19 30 -53 42 -75 12 -22
34 -62 50 -90 45 -80 99 -178 115 -209 9 -15 18 -29 22 -30 8 -2 338 405 338
419 0 6 -4 15 -9 20 -5 6 -44 73 -86 150 -43 77 -89 160 -102 185 -14 25 -109
195 -210 378 -211 383 -363 655 -366 659 -2 1 -34 -37 -72 -85z"/>
<path d="M2348 2589 c-78 -100 -148 -187 -153 -193 -6 -6 -62 -76 -125 -156
-63 -80 -120 -152 -127 -160 -7 -8 -49 -62 -95 -120 -46 -58 -87 -110 -93
-116 -5 -6 -21 -26 -35 -44 -14 -18 -125 -159 -247 -312 -123 -153 -223 -280
-223 -281 0 -2 144 -3 320 -3 l320 1 171 215 c94 118 275 346 402 505 127 160
246 309 265 333 l35 43 -19 37 c-57 110 -240 432 -246 432 -3 0 -71 -82 -150
-181z"/>
</g>
</svg>
